Coordinates
version=1
nRows=14
nColumns=40
inDegrees=yes

Units are S.I. units (second, meters, Newtons, ...)
If the header above contains a line with 'inDegrees', this indicates whether rotational values are in degrees (yes) or radians (no).

endheader
time	pelvis_tilt	pelvis_list	pelvis_rotation	pelvis_tx	pelvis_ty	pelvis_tz	hip_flexion_r	hip_adduction_r	hip_rotation_r	knee_angle_r	knee_angle_r_beta	ankle_angle_r	subtalar_angle_r	mtp_angle_r	hip_flexion_l	hip_adduction_l	hip_rotation_l	knee_angle_l	knee_angle_l_beta	ankle_angle_l	subtalar_angle_l	mtp_angle_l	lumbar_extension	lumbar_bending	lumbar_rotation	arm_flex_r	arm_add_r	arm_rot_r	elbow_flex_r	pro_sup_r	wrist_flex_r	wrist_dev_r	arm_flex_l	arm_add_l	arm_rot_l	elbow_flex_l	pro_sup_l	wrist_flex_l	wrist_dev_l
      0.29000000	     -0.56810344	      5.07194658	    -11.84545835	     -0.97602830	      0.99479192	      0.25616853	      0.96038771	    -11.47200697	     -4.15940494	     49.53393946	      0.86453034	    -15.18404583	      0.00000000	      0.00000000	     13.79513930	      3.95850527	    -19.46921149	     13.62044867	      0.23772167	     -5.79717903	      0.00000000	      0.00000000	     -7.66748141	     -8.91340505	      7.68759733	    -12.22600490	     -1.11006247	     -7.91379564	     60.46924641	     88.59804804	     27.42290964	     29.00997302	    -12.26198858	     -3.56027865	    -13.02936726	     55.22765940	     89.38121008	     28.20515645	     32.28981214
      0.30000000	     -0.64429429	      5.22737566	    -11.83154075	     -0.96865303	      0.99504894	      0.25486450	      2.32248628	    -11.89686014	     -3.90475660	     51.83638795	      0.90471564	    -15.07606495	      0.00000000	      0.00000000	     13.44215367	      4.32061504	    -19.45535861	     13.57471602	      0.23692349	     -5.32542930	      0.00000000	      0.00000000	     -7.64706767	     -9.05891201	      7.33718083	    -12.15812307	     -1.06531523	     -8.09644849	     60.36361194	     88.52609054	     27.93848287	     29.44004973	    -11.91486585	     -3.82367758	    -12.96515146	     55.49063103	     89.37529321	     29.00237312	     32.33325746
      0.31000000	     -0.67038568	      5.28353152	    -11.76329168	     -0.96138933	      0.99547161	      0.25352652	      3.58289164	    -12.19911192	     -3.71543581	     53.96611666	      0.94188642	    -14.76167461	      0.00000000	      0.00000000	     13.00778406	      4.60082672	    -19.37019161	     13.50616437	      0.23572704	     -4.87898036	      0.00000000	      0.00000000	     -7.73897026	     -9.09791447	      6.96361367	    -12.10003377	     -0.98560732	     -8.41023666	     60.31485869	     88.52903142	     28.10547732	     29.49373016	    -11.50410372	     -4.05527404	    -12.93245725	     55.77710932	     89.37257208	     29.24076664	     32.29218085
      0.32000000	     -0.57542201	      5.16581629	    -11.65856119	     -0.95434576	      0.99618787	      0.25220429	      4.65979383	    -12.28521418	     -3.52890298	     55.87835141	      0.97526121	    -14.37867530	      0.00000000	      0.00000000	     12.40361001	      4.74282269	    -19.09729245	     13.39847125	      0.23384744	     -4.51340299	      0.00000000	      0.00000000	     -8.05552130	     -8.97192352	      6.55829653	    -11.99331863	     -0.95031920	     -8.66342070	     60.31085771	     88.51665497	     28.11426492	     29.47662422	    -11.01334373	     -4.26286939	    -12.88171260	     56.08158809	     89.37107330	     29.28859415	     32.24261498
      0.33000000	     -0.66588780	      5.20058975	    -11.57864756	     -0.94728926	      0.99658210	      0.25095703	      5.98399194	    -12.48815017	     -3.35417671	     57.71376387	      1.00729520	    -13.45357447	      0.00000000	      0.00000000	     12.00361963	      4.99006184	    -19.03117866	     13.24453936	      0.23116082	     -4.12512267	      0.00000000	      0.00000000	     -8.08127362	     -8.96538619	      6.21655303	    -11.95392147	     -0.84484602	     -9.02912366	     60.30082978	     88.51212061	     28.08609865	     29.46711450	    -10.54863643	     -4.47664788	    -12.87273371	     56.38554171	     89.37447668	     29.30797322	     32.21469559
      0.34000000	     -1.09699532	      5.34625982	    -11.59427833	     -0.94028668	      0.99649815	      0.24982006	      7.77725666	    -12.67064623	     -2.96055462	     59.45940731	      1.03776243	    -12.44362302	      0.00000000	      0.00000000	     11.99274234	      5.24770024	    -19.13143676	     13.09541760	      0.22855815	     -3.85261738	      0.00000000	      0.00000000	     -7.60652282	     -8.99054624	      6.03495837	    -11.98225520	     -0.73674732	     -9.40478325	     60.18596142	     88.50815659	     28.01429037	     29.44296295	    -10.10142391	     -4.70587625	    -12.79227068	     56.54379897	     89.37443924	     29.28412600	     32.22099308
      0.35000000	     -1.11123920	      5.15969722	    -11.47633167	     -0.93338899	      0.99720041	      0.24865221	      8.90710066	    -12.54782792	     -2.81289495	     60.79375414	      1.06105117	    -11.38821554	      0.00000000	      0.00000000	     11.44364570	      5.28594330	    -18.96432976	     12.89279533	      0.22502173	     -3.51421983	      0.00000000	      0.00000000	     -7.77546302	     -8.73805420	      5.66491194	    -11.92166625	     -0.68058044	     -9.72734162	     60.23266799	     88.48251039	     27.92925226	     29.37159405	     -9.57108931	     -4.85824217	    -12.84532779	     56.81196254	     89.37853514	     29.23904804	     32.21542495
      0.36000000	     -1.12106882	      4.93825176	    -11.35975442	     -0.92661345	      0.99798481	      0.24755915	     10.01517417	    -12.33461575	     -2.65018002	     61.89956016	      1.08035113	    -10.37865808	      0.00000000	      0.00000000	     10.86958317	      5.28239573	    -18.74387789	     12.64677486	      0.22072786	     -3.27550018	      0.00000000	      0.00000000	     -7.95378900	     -8.45861490	      5.32485744	    -11.84354355	     -0.64502090	     -9.99932067	     60.25904369	     88.45339132	     27.84762978	     29.31487540	     -9.01184409	     -5.00560236	    -12.90848734	     57.11506066	     89.37894268	     29.20215695	     32.21861038
      0.37000000	     -1.19044183	      4.72025991	    -11.24797217	     -0.91988116	      0.99865797	      0.24665826	     11.15919302	    -12.07578716	     -2.54765209	     62.79631503	      1.09600246	     -9.17191338	      0.00000000	      0.00000000	     10.34839404	      5.25375339	    -18.58729771	     12.38143474	      0.21609680	     -3.02305198	      0.00000000	      0.00000000	     -8.04164989	     -8.17769711	      5.01121454	    -11.80157448	     -0.57368814	    -10.26614161	     60.31683553	     88.42382581	     27.74814164	     29.25090048	     -8.45954173	     -5.14852120	    -13.01179748	     57.42220006	     89.38221052	     29.15270776	     32.24406332
      0.38000000	     -1.32568754	      4.49610612	    -11.13151164	     -0.91314492	      0.99924487	      0.24560483	     12.33610936	    -11.77696788	     -2.44913344	     63.44051965	      1.10724595	     -7.89956574	      0.00000000	      0.00000000	      9.89814600	      5.21192725	    -18.45296986	     12.11576196	      0.21145994	     -2.77510660	      0.00000000	      0.00000000	     -8.06684778	     -7.84639792	      4.72364592	    -11.78541460	     -0.55725542	    -10.52397136	     60.36963453	     88.39572930	     27.62812852	     29.17878074	     -7.91667623	     -5.24638903	    -13.11136041	     57.75514682	     89.38390963	     29.09471105	     32.28799164
      0.39000000	     -1.45416639	      4.24373883	    -10.96620856	     -0.90647820	      0.99984628	      0.24471517	     13.45884843	    -11.39024095	     -2.38685106	     63.85083099	      1.11440723	     -6.79532755	      0.00000000	      0.00000000	      9.43216296	      5.12569762	    -18.35328975	     11.84352189	      0.20670845	     -2.55500340	      0.00000000	      0.00000000	     -8.07535406	     -7.50224317	      4.43868649	    -11.78723704	     -0.53996588	    -10.70371338	     60.40805473	     88.36841492	     27.51915948	     29.11162979	     -7.34612915	     -5.34946382	    -13.20811450	     58.10135591	     89.38858740	     29.04005464	     32.32040677
      0.40000000	     -1.51387461	      3.99832593	    -10.80686120	     -0.89995244	      1.00054056	      0.24379500	     14.50983658	    -11.04793364	     -2.42516028	     64.04846863	      1.11785666	     -6.05918954	      0.00000000	      0.00000000	      8.90501165	      5.04965471	    -18.35766196	     11.57053812	      0.20194399	     -2.38589065	      0.00000000	      0.00000000	     -8.17426074	     -7.16761621	      4.13117012	    -11.72401456	     -0.55175676	    -10.81936634	     60.41063095	     88.34211522	     27.45926522	     29.07149456	     -6.73970901	     -5.44992655	    -13.26370933	     58.42768679	     89.39460213	     29.01275024	     32.32775839
      0.41000000	     -1.69962480	      3.65259681	    -10.63350654	     -0.89329114	      1.00095920	      0.24314599	     15.53988344	    -10.45319672	     -2.40725975	     63.94665569	      1.11607969	     -4.66428175	      0.00000000	      0.00000000	      8.48011405	      4.83592662	    -18.11155250	     11.30632536	      0.19733260	     -2.12297970	      0.00000000	      0.00000000	     -8.11389146	     -6.74438539	      3.92138242	    -11.79568525	     -0.55559240	    -10.92614966	     60.51965518	     88.31646273	     27.35172769	     28.99233213	     -6.21009526	     -5.52606552	    -13.40011623	     58.91536553	     89.39029655	     28.94179407	     32.34550511
      0.42000000	     -1.82607238	      3.34994941	    -10.42101671	     -0.88681255	      1.00142469	      0.24236703	     16.53484942	     -9.95401146	     -2.48625000	     63.70134583	      1.11179822	     -3.77074653	      0.00000000	      0.00000000	      8.02132009	      4.67390645	    -18.01793822	     11.04677424	      0.19280258	     -1.89487085	      0.00000000	      0.00000000	     -8.14227291	     -6.35248171	      3.64228860	    -11.79243823	     -0.58257515	    -10.97715409	     60.56903512	     88.29979806	     27.27924484	     28.93673796	     -5.63158003	     -5.62187545	    -13.43257580	     59.37832386	     89.38578416	     28.89553110	     32.33221791
